<svg width="756" height="172" viewBox="0 0 756 172" fill="none" xmlns="http://www.w3.org/2000/svg">
<g clip-path="url(#clip0_10907_41570)">
<path d="M152.234 126.444C152.234 126.444 137.527 140.754 127.092 140.643C116.656 140.522 113.836 134.22 116.8 117.355C117.912 111.043 120.412 101.712 123.376 91.785C134.244 90.6237 142.107 89.7653 144.001 89.5835C151.555 88.8261 153.531 85.746 151.946 81.0399C150.351 76.3339 146.677 77.2226 133.411 77.8386C132.196 77.8992 130.21 77.98 127.617 78.0911C131.497 65.9322 135.449 54.5003 137.764 48.1381C142.858 34.1715 144.402 31.6165 145.112 28.1223C145.822 24.6282 147.13 15.6705 139.534 14.1557C131.949 12.6409 126.248 16.2866 120.557 31.6064C117.768 39.1098 110.821 58.8428 104.543 79.0707C92.4193 79.5857 78.1551 80.1815 64.704 80.7471C69.9424 64.2457 76.7452 40.0187 74.8618 27.6982C72.0831 9.61128 53.0642 1.32018 31.9149 8.43982C12.8754 14.8525 4.92 27.3649 1.69873 33.5757C-1.52255 39.7864 0.000612446 43.5937 4.88913 42.7151C9.77764 41.8466 16.1276 34.8178 28.7965 28.2839C41.4552 21.7399 49.9149 22.3963 53.2391 30.4552C56.5736 38.5241 52.354 50.6224 49.0196 60.7515C47.9595 63.9629 45.0573 71.9813 41.4552 81.7165C27.1396 82.3124 17.0126 82.7365 17.0126 82.7365C-0.647758 83.4737 6.3917 91.169 7.81195 93.5119C11.836 99.1167 12.474 101.52 23.5993 101.51C25.2871 101.51 29.095 101.248 34.3334 100.803C28.107 117.345 21.8909 133.543 19.9252 138.017C15.9217 147.177 15.8188 162.87 24.1447 162.87C32.4707 162.87 38.7074 153.105 41.1156 148.045C43.246 143.561 56.0179 106.762 58.8789 98.4906C71.8052 97.2081 86.4913 95.6731 100.025 94.2491C95.8876 108.741 92.7692 121.92 92.5943 129.13C92.1105 148.651 102.701 159.821 116.491 159.033C130.282 158.245 141.51 152.418 157.071 139.047C157.071 139.047 153.675 134.887 152.244 126.424L152.234 126.444Z" fill="#F2F9F5"/>
<path d="M224.111 118.565C224.111 118.565 210.681 129.128 197.333 132.865C183.984 136.601 180.835 129.168 179.569 126.937C179.569 126.937 197.075 121.726 205.545 111.092C214.015 100.458 214.911 93.2875 213.748 88.228C212.585 83.1584 206.996 72.7769 193.082 72.7769C179.168 72.7769 167.754 82.8352 162.341 98.6095C156.928 114.384 157.669 121.201 159.254 128.694C160.715 135.591 167.003 147.084 179.168 150.598C191.333 154.112 207.748 150.356 225.408 137.025L226.694 135.864L224.101 118.565H224.111ZM177.007 113.303C177.007 113.303 176.626 102.275 182.811 94.1964C188.049 87.3393 193.988 87.5009 196.149 88.5713C198.31 89.6418 201.305 94.0449 198.094 99.4881C194.873 104.931 188.245 112.243 177.017 113.293L177.007 113.303Z" fill="#F2F9F5"/>
<path d="M322.947 44.1085C327.62 31.99 334.309 -0.00292969 315.949 -0.00292969C297.589 -0.00292969 282.903 30.1318 282.903 30.1318C286.577 9.93427 282.46 4.90508 277.891 1.63307C273.331 -1.63893 264.645 0.542404 257.194 5.89476C249.743 11.2471 240.059 26.9709 235.386 37.5645C230.714 48.1581 218.477 80.04 219.918 108.973C221.369 137.906 231.856 150.691 238.474 151.6C245.102 152.509 259.654 147.631 271.17 140.895C272.271 143.046 276.12 151.075 284.601 151.792C293.081 152.509 313.922 141.491 313.922 141.491L307.726 125.03C296.158 132.786 292.927 132.786 290.59 133.22C288.254 133.654 285.476 127.868 285.476 121.97C285.476 116.072 292.268 102.096 300.048 89.654C307.839 77.2022 318.285 56.2372 322.958 44.1186L322.947 44.1085ZM247.839 48.552C253.53 27.799 262.422 17.7103 265.263 18.6394C266.374 19.003 268.33 25.0824 260.158 47.5522C251.987 70.022 241.746 87.8362 240.686 88.2705C239.77 86.9778 242.374 68.4971 247.839 48.552ZM265.366 124.192C265.366 124.192 259.489 128.252 253.695 131.008C247.901 133.765 246.367 133.614 245.544 133.129C244.721 132.644 238.021 125.212 244.597 110.629C251.174 96.0465 266.282 73.9504 270.913 62.7206C270.913 62.7206 259.736 101.702 265.366 124.192ZM284.652 88.0483C283.644 87.503 287.225 64.2455 293.657 44.5024C300.09 24.7593 306.614 17.6396 309.28 18.7202C311.946 19.8008 309.095 32.1516 305.235 44.8659C301.376 57.5803 285.671 88.5835 284.652 88.0483Z" fill="#F2F9F5"/>
<path d="M360.97 89.3107C367.444 93.2391 372.59 97.622 372.59 97.622C372.199 89.442 373.434 83.514 373.434 83.514C371.334 81.9891 358.758 72.4356 341.735 73.3445C324.713 74.2534 314.38 83.1302 308.298 97.2079C301.598 112.71 305.746 128.231 308.833 135.593C311.921 142.955 317.519 152.347 332.741 151.751C347.962 151.156 359.324 139.239 363.708 122.182C368.092 105.125 360.301 90.1388 360.301 90.1388C360.301 90.1388 360.127 89.7752 360.353 89.5127C360.579 89.2501 360.97 89.3107 360.97 89.3107ZM349.423 112.073C347.859 125.121 343.042 137.553 333.554 136.361C324.054 135.159 321.379 125.262 323.478 110.882C325.578 96.501 333.955 88.5634 340.264 88.5634C346.572 88.5634 350.977 99.0257 349.423 112.073Z" fill="#F2F9F5"/>
<path d="M450.566 5.93164C406.251 5.93164 390.587 41.6409 383.733 61.2426C376.487 81.9653 378.093 116.483 379.204 124.875C380.316 133.267 386.47 171.935 413.908 171.935C441.345 171.935 448.94 142.386 450.844 131.257C452.748 120.139 452.851 96.8206 452.851 96.8206C499.452 88.7416 503.445 59.7783 503.661 48.2253C503.887 36.6723 494.882 5.93164 450.566 5.93164ZM458.275 24.0085C470.193 26.311 483.994 33.6124 483.994 49.4776C483.994 65.3427 471.026 76.6837 453.335 78.249C453.016 73.8156 456.33 62.0304 457.668 56.6275C459.006 51.2348 459.705 45.8521 455.918 44.3272C452.131 42.8023 445.616 42.6104 441.541 46.1349C437.455 49.6593 432.309 55.1935 431.63 79.2185C431.63 79.2185 423.86 76.7443 419.578 74.1691C415.307 71.5939 414.803 74.472 414.494 78.0571C414.237 81.0161 414.885 85.813 416.059 87.8327C417.232 89.8424 422.151 93.1346 432.484 96.6995C432.484 96.6995 433.029 118.664 430.024 132.348C427.019 146.032 423.047 154.04 414.453 153.465C409.523 153.131 399.232 147.082 399.355 108.505C399.489 68.0492 412.765 15.2427 458.275 24.0186V24.0085Z" fill="#F2F9F5"/>
<path d="M518.37 97.7496C518.853 98.0526 518.967 97.8203 519.1 97.7092C519.471 97.3962 519.697 96.77 520.202 95.7097C520.891 94.2756 524.853 85.3079 528.383 80.7433C531.913 76.1786 536.287 71.9068 543.409 72.6844C550.531 73.462 551.323 78.8346 548.493 91.3874C545.653 103.94 546.651 109.373 552.26 110.676C557.859 111.969 566.257 107.01 570.137 104.728L565.279 124.885C565.279 124.885 554.071 130.904 545.035 128.036C535.999 125.168 533.056 117.281 531.934 110.848C530.812 104.425 530.555 102.728 530.38 101.88C530.205 101.032 529.865 100.951 529.516 100.951C529.166 100.951 528.826 101.708 528.054 103.577C527.282 105.445 514.778 141.124 512.37 145.608C509.961 150.092 507.461 152.798 502.891 151.526C498.322 150.253 492.208 146.961 495.656 122.441C499.104 97.9213 503.931 79.4001 505.485 76.6129C507.039 73.8256 508.387 72.5935 513.306 72.5532C518.226 72.5128 518.596 73.3308 518.864 77.3602C519.131 81.3896 517.907 97.4668 518.38 97.7799L518.37 97.7496Z" fill="#F2F9F5"/>
<path d="M610.618 138.149C610.618 138.149 592.865 152.307 575.637 151.721C563.472 151.126 560.375 140.522 563.771 123.324C567.167 106.125 572.766 86.1803 575.102 80.1716C575.853 77.6469 579.959 73.7084 586.587 73.0519C594.069 72.3147 595.953 74.8293 595.047 79.7272C594.141 84.6251 585.074 113.316 583.788 123.697C582.502 134.079 583.942 139.785 593.689 134.594C603.435 129.403 611.442 120.799 611.442 120.799L615.445 123.546C615.445 123.546 613.253 131.928 613.181 132.15C613.109 132.372 610.608 138.159 610.608 138.159L610.618 138.149Z" fill="#F2F9F5"/>
<path d="M592.005 63.0433C584.132 62.9827 577.762 59.3673 578.297 49.4705C578.832 39.5737 589.916 36.635 595.464 37.3318C601 38.0286 607.628 39.1698 607.999 47.9961C608.369 56.8224 602.246 63.1241 592.005 63.0332V63.0433Z" fill="#F2F9F5"/>
<path d="M649.799 104.087C649.387 104.087 649.15 104.349 648.903 104.804C648.656 105.258 633.806 134.636 631.14 139.493C628.475 144.34 626.9 151.773 618.399 151.773C609.898 151.773 608.571 140.271 609.065 132.858C609.569 125.446 611.812 97.7548 614.643 84.8384C617.473 71.9221 624.44 72.8007 626.838 72.8007C629.236 72.8007 632.334 73.9419 633.281 77.436C634.228 80.9201 633.888 85.9897 632.951 91.8268C632.005 97.6538 630.481 107.732 630.79 108.399C631.017 108.894 632.015 109.055 632.457 108.237C632.9 107.419 638.293 94.3414 644.355 83.8589C650.416 73.3763 657.898 71.811 662.612 73.2955C667.325 74.7801 670.166 80.2334 668.169 91.4531C666.173 102.683 661.017 128.607 665.813 132.313C670.608 136.029 676.248 131.162 693.322 119.023L697.943 135.868C697.943 135.868 668.838 151.884 661.356 152.046C653.864 152.207 649.017 146.986 648.296 132.484C647.576 117.993 649.974 106.49 650.293 104.905C650.457 104.087 649.809 104.087 649.809 104.087H649.799Z" fill="#F2F9F5"/>
<path d="M755.661 72.0275C755.61 70.1794 754.972 67.473 752.615 67.3013C750.258 67.1195 728.368 66.5843 728.368 66.5843C734.759 57.0611 739.514 48.6892 741.438 40.59C745.678 22.7657 739.318 9.19291 728.286 8.486C705.551 7.02167 694.519 64.5241 694.519 64.5241C694.519 64.5241 688.992 64.2616 680.923 64.3524C672.855 64.4433 669.695 66.4227 669.695 68.8262C669.695 71.2297 671.188 73.7342 673.905 74.5926C676.622 75.451 692.152 77.5213 692.152 77.5213C688.292 103.516 693.026 128.904 697.328 138.114C701.63 147.324 708.731 152.313 717.325 151.717C725.918 151.111 737.671 143.456 743.291 139.407C748.9 135.357 749.26 132.691 748.375 128.732C747.5 124.773 745.483 123.996 729.16 131.57C712.848 139.144 710.121 128.985 708.989 121.067C707.846 113.15 709.956 91.8918 709.956 91.8918C712.591 88.9632 719.249 80.0157 719.249 80.0157C725.26 80.2984 743.373 80.3489 750.021 80.0763C756.67 79.8036 755.723 73.8756 755.671 72.0275H755.661ZM715.123 65.3522C715.123 65.3522 712.838 65.3522 709.637 65.1805C709.637 65.1805 715.637 40.4991 718.704 34.6115C721.781 28.7139 723.057 25.3914 727.328 26.7345C731.589 28.0877 729.346 36.0961 727.925 39.8225C726.505 43.5591 717.5 62.5145 715.123 65.3421V65.3522Z" fill="#F2F9F5"/>
</g>
<defs>
<clipPath id="clip0_10907_41570">
<rect width="755.744" height="171.942" fill="white"/>
</clipPath>
</defs>
</svg>
