<svg width="300" height="300" viewBox="0 0 300 300" fill="none" xmlns="http://www.w3.org/2000/svg">
<rect width="300" height="300" rx="150" fill="#008539"/>
<g clip-path="url(#clip0_11353_296)">
<path d="M212.857 184.367C212.857 184.367 200.409 196.518 191.576 196.423C182.742 196.32 180.355 190.969 182.864 176.649C183.805 171.29 185.922 163.366 188.431 154.937C197.63 153.951 204.285 153.222 205.888 153.067C212.282 152.424 213.955 149.809 212.613 145.813C211.263 141.817 208.153 142.571 196.924 143.095C195.896 143.146 194.215 143.215 192.02 143.309C195.304 132.984 198.649 123.277 200.609 117.875C204.921 106.016 206.228 103.846 206.829 100.879C207.43 97.9122 208.536 90.3061 202.107 89.0198C195.687 87.7336 190.861 90.8292 186.044 103.838C183.683 110.209 177.803 126.965 172.489 144.141C162.227 144.578 150.154 145.084 138.768 145.564C143.202 131.552 148.96 110.981 147.366 100.519C145.014 85.161 128.916 78.1209 111.014 84.1663C94.8983 89.6115 88.1645 100.236 85.4379 105.51C82.7113 110.784 84.0005 114.016 88.1384 113.27C92.2762 112.533 97.651 106.565 108.375 101.016C119.089 95.4598 126.25 96.0171 129.064 102.86C131.886 109.712 128.315 119.985 125.492 128.585C124.595 131.312 122.138 138.121 119.089 146.387C106.972 146.893 98.4002 147.253 98.4002 147.253C83.4517 147.879 89.4102 154.414 90.6123 156.403C94.0184 161.162 94.5585 163.203 103.975 163.195C105.404 163.195 108.627 162.972 113.061 162.594C107.791 176.64 102.529 190.395 100.865 194.194C97.4768 201.971 97.3897 215.297 104.437 215.297C111.484 215.297 116.763 207.005 118.802 202.709C120.605 198.901 131.416 167.654 133.837 160.631C144.779 159.542 157.21 158.238 168.665 157.029C165.163 169.334 162.524 180.525 162.376 186.648C161.966 203.223 170.93 212.707 182.603 212.039C194.276 211.37 203.78 206.422 216.951 195.068C216.951 195.068 214.077 191.535 212.866 184.349L212.857 184.367Z" fill="white"/>
</g>
<defs>
<clipPath id="clip0_11353_296">
<rect width="132" height="146" fill="white" transform="translate(84 77)"/>
</clipPath>
</defs>
</svg>
